<svg width="226" height="48" viewBox="0 0 226 48" fill="none" xmlns="http://www.w3.org/2000/svg">
<path opacity="0.5" d="M52.4118 2.22009L41.1194 42.8225C41.062 43.0068 40.8323 43.0621 40.6983 42.9331L33.1382 35.6531L38.8035 15.3058C38.8609 15.1215 38.6887 14.9556 38.4973 15.0109L17.3671 20.4663L9.84517 13.2231C9.7112 13.0941 9.76861 12.8729 9.96001 12.8176L52.1056 1.9252C52.297 1.88834 52.4693 2.05422 52.4118 2.22009Z" fill="#00B37E"/>
<path opacity="0.5" d="M33.1378 35.6527L30.2286 46.1581C30.1712 46.3424 29.9415 46.3977 29.8075 46.2686L6.34224 23.6913C6.20827 23.5622 6.26568 23.3411 6.45708 23.2858L17.3667 20.4659L33.1378 35.6527Z" fill="#00B37E"/>
<path d="M38.8026 15.3054L33.1373 35.6527L17.3661 20.4659L38.4964 15.0105C38.6878 14.9552 38.86 15.121 38.8026 15.3054Z" fill="#00B37E"/>
<path d="M76.9964 36.1083H71.8438L71.8763 32.3109H76.9964C78.2751 32.3109 79.3533 32.0242 80.231 31.4508C81.1087 30.8666 81.7697 30.0173 82.214 28.903C82.6691 27.7886 82.8967 26.4417 82.8967 24.8621V23.7099C82.8967 22.4982 82.7667 21.4326 82.5066 20.513C82.2574 19.5934 81.8835 18.8198 81.385 18.1923C80.8866 17.5649 80.2743 17.0942 79.5483 16.7805C78.8223 16.4559 77.9879 16.2936 77.0452 16.2936H71.7463V12.48H77.0452C78.6273 12.48 80.0739 12.7505 81.385 13.2914C82.7071 13.8215 83.8503 14.5843 84.8147 15.5796C85.7791 16.5749 86.5214 17.765 87.0415 19.1498C87.5725 20.5238 87.838 22.0547 87.838 23.7424V24.8621C87.838 26.5391 87.5725 28.0699 87.0415 29.4547C86.5214 30.8395 85.7791 32.0296 84.8147 33.0249C83.8611 34.0094 82.7179 34.7722 81.385 35.3131C80.063 35.8432 78.6002 36.1083 76.9964 36.1083ZM74.607 12.48V36.1083H69.7308V12.48H74.607Z" fill="#E1E1E6"/>
<path d="M100.858 12.48V36.1083H95.9976V12.48H100.858ZM108.139 12.48V16.2936H88.8295V12.48H108.139Z" fill="#E1E1E6"/>
<path d="M120.558 12.48H124.686L130.765 29.828L136.844 12.48H140.973L132.423 36.1083H129.107L120.558 12.48ZM118.331 12.48H122.443L123.191 29.3898V36.1083H118.331V12.48ZM139.088 12.48H143.216V36.1083H138.34V29.3898L139.088 12.48Z" fill="#E1E1E6"/>
<path d="M146.451 27.5073V27.1665C146.451 25.8791 146.635 24.6944 147.003 23.6126C147.372 22.5199 147.908 21.5732 148.613 20.7726C149.317 19.972 150.184 19.35 151.213 18.9064C152.243 18.452 153.424 18.2248 154.757 18.2248C156.089 18.2248 157.276 18.452 158.316 18.9064C159.357 19.35 160.229 19.972 160.933 20.7726C161.648 21.5732 162.19 22.5199 162.559 23.6126C162.927 24.6944 163.111 25.8791 163.111 27.1665V27.5073C163.111 28.784 162.927 29.9686 162.559 31.0613C162.19 32.1432 161.648 33.0898 160.933 33.9013C160.229 34.7018 159.362 35.3239 158.333 35.7675C157.303 36.2111 156.122 36.4329 154.789 36.4329C153.456 36.4329 152.27 36.2111 151.229 35.7675C150.2 35.3239 149.328 34.7018 148.613 33.9013C147.908 33.0898 147.372 32.1432 147.003 31.0613C146.635 29.9686 146.451 28.784 146.451 27.5073ZM151.132 27.1665V27.5073C151.132 28.243 151.197 28.93 151.327 29.5683C151.457 30.2066 151.663 30.7692 151.945 31.2561C152.237 31.7321 152.616 32.1053 153.082 32.3758C153.548 32.6463 154.117 32.7815 154.789 32.7815C155.439 32.7815 155.997 32.6463 156.463 32.3758C156.929 32.1053 157.303 31.7321 157.585 31.2561C157.867 30.7692 158.072 30.2066 158.202 29.5683C158.343 28.93 158.414 28.243 158.414 27.5073V27.1665C158.414 26.4525 158.343 25.7817 158.202 25.1542C158.072 24.5159 157.861 23.9534 157.569 23.4665C157.287 22.9688 156.913 22.5794 156.447 22.2981C155.981 22.0168 155.418 21.8761 154.757 21.8761C154.096 21.8761 153.532 22.0168 153.066 22.2981C152.611 22.5794 152.237 22.9688 151.945 23.4665C151.663 23.9534 151.457 24.5159 151.327 25.1542C151.197 25.7817 151.132 26.4525 151.132 27.1665Z" fill="#E1E1E6"/>
<path d="M170.572 22.2981V36.1083H165.891V18.5494H170.279L170.572 22.2981ZM169.889 26.7122H168.621C168.621 25.4139 168.789 24.2455 169.125 23.2069C169.461 22.1574 169.933 21.2649 170.539 20.5292C171.146 19.7827 171.867 19.2147 172.701 18.8252C173.546 18.4249 174.489 18.2248 175.529 18.2248C176.353 18.2248 177.106 18.3438 177.789 18.5818C178.472 18.8198 179.057 19.1985 179.544 19.7178C180.043 20.2371 180.422 20.9241 180.682 21.7788C180.953 22.6335 181.088 23.6775 181.088 24.9108V36.1083H176.375V24.8946C176.375 24.1156 176.266 23.5098 176.05 23.077C175.833 22.6443 175.513 22.3414 175.091 22.1683C174.679 21.9843 174.17 21.8924 173.563 21.8924C172.934 21.8924 172.387 22.0168 171.921 22.2656C171.466 22.5145 171.087 22.8607 170.783 23.3042C170.491 23.737 170.269 24.2455 170.117 24.8297C169.965 25.4139 169.889 26.0414 169.889 26.7122Z" fill="#E1E1E6"/>
<path d="M192.743 36.4329C191.377 36.4329 190.153 36.2165 189.069 35.7837C187.986 35.3402 187.065 34.7289 186.306 33.9499C185.558 33.171 184.984 32.2676 184.583 31.2398C184.182 30.2012 183.982 29.0977 183.982 27.9293V27.2801C183.982 25.9494 184.171 24.7323 184.551 23.6288C184.93 22.5253 185.472 21.5678 186.176 20.7564C186.891 19.945 187.758 19.3229 188.777 18.8902C189.795 18.4466 190.944 18.2248 192.223 18.2248C193.469 18.2248 194.574 18.4304 195.538 18.8415C196.503 19.2526 197.31 19.8368 197.96 20.5941C198.621 21.3514 199.12 22.2602 199.456 23.3205C199.792 24.3699 199.96 25.5383 199.96 26.8258V28.7731H185.981V25.6573H195.36V25.3003C195.36 24.6512 195.24 24.0724 195.002 23.5639C194.774 23.0446 194.428 22.6335 193.962 22.3305C193.496 22.0276 192.9 21.8761 192.174 21.8761C191.556 21.8761 191.025 22.0114 190.581 22.2819C190.137 22.5523 189.774 22.931 189.492 23.4178C189.221 23.9047 189.015 24.4781 188.874 25.138C188.744 25.7871 188.679 26.5012 188.679 27.2801V27.9293C188.679 28.6325 188.777 29.2816 188.972 29.8767C189.178 30.4717 189.465 30.9856 189.833 31.4183C190.212 31.8511 190.668 32.1865 191.199 32.4245C191.74 32.6625 192.353 32.7815 193.035 32.7815C193.881 32.7815 194.666 32.6192 195.392 32.2947C196.129 31.9593 196.763 31.4562 197.294 30.7854L199.569 33.2521C199.201 33.7822 198.697 34.2907 198.058 34.7776C197.429 35.2644 196.671 35.6647 195.782 35.9785C194.894 36.2814 193.881 36.4329 192.743 36.4329Z" fill="#E1E1E6"/>
<path d="M207.615 34.1284L212.28 18.5494H217.303L210.232 38.7535C210.081 39.1971 209.875 39.6731 209.615 40.1816C209.365 40.6901 209.024 41.1715 208.591 41.6259C208.168 42.0911 207.632 42.4697 206.981 42.7619C206.342 43.054 205.556 43.2 204.625 43.2C204.18 43.2 203.817 43.173 203.536 43.1189C203.254 43.0648 202.918 42.989 202.528 42.8917V39.4675C202.647 39.4675 202.772 39.4675 202.902 39.4675C203.032 39.4783 203.156 39.4838 203.275 39.4838C203.893 39.4838 204.397 39.4134 204.787 39.2728C205.177 39.1321 205.491 38.9158 205.73 38.6237C205.968 38.3424 206.158 37.9745 206.299 37.5201L207.615 34.1284ZM205.665 18.5494L209.485 31.2723L210.151 36.2219L206.965 36.5627L200.642 18.5494H205.665Z" fill="#E1E1E6"/>
</svg>
